<svg width="5057" height="1630" viewBox="0 0 5057 1630" fill="none" xmlns="http://www.w3.org/2000/svg">
<path d="M494.412 393.967L488.47 357.924H524.999H986.996H1015.21L1017.86 386.009C1021.96 429.471 1021.28 502.077 1006.67 582.171C993.23 655.84 967.678 737.68 921.678 809.388C965.935 877.651 1027.64 1030.6 1017.96 1242.49L1016.61 1272.08H986.996H524.999H489.728L494.256 1237.1C499.848 1193.89 500.843 1120.17 484.936 1042.87C468.997 965.414 436.774 887.576 378.635 832.275L356.696 811.406L377.042 788.982C428.2 732.6 523.923 572.967 494.412 393.967Z" fill="#151515" stroke="#1C916E" stroke-width="62"/>
<path d="M621.532 481.796C613.932 640.667 548.699 769.634 517.033 814.259C595.032 925.706 619.199 1082.67 621.532 1147.22H892.031C892.031 981.231 807.031 856.084 764.531 814.259C859.731 719.015 889.197 552.932 892.031 481.796H621.532Z" fill="#1C916E"/>
<path d="M1600.52 685.8C1559.72 685.8 1526.72 703.8 1501.52 739.8C1476.32 775.8 1463.72 823.8 1463.72 883.8C1463.72 941.4 1475.72 988.2 1499.72 1024.2C1524.32 1060.2 1558.22 1078.2 1601.42 1078.2C1625.42 1078.2 1647.62 1075.2 1668.02 1069.2C1688.42 1063.2 1707.02 1055.7 1723.82 1046.7L1779.62 1156.5C1756.22 1170.3 1728.02 1180.8 1695.02 1188C1662.02 1195.8 1630.82 1199.7 1601.42 1199.7C1503.62 1199.7 1430.72 1170 1382.72 1110.6C1334.72 1051.2 1310.72 975.9 1310.72 884.7C1310.72 790.5 1336.22 713.7 1387.22 654.3C1438.82 594.3 1509.92 564.3 1600.52 564.3C1626.32 564.3 1655.42 568.2 1687.82 576C1720.82 583.8 1749.62 595.5 1774.22 611.1L1730.12 711.9C1699.52 702.3 1675.82 695.7 1659.02 692.1C1642.22 687.9 1622.72 685.8 1600.52 685.8ZM2143.72 736.2C2204.32 736.2 2247.52 753.6 2273.32 788.4C2299.72 822.6 2312.92 865.5 2312.92 917.1V1188H2165.32V921.6C2165.32 901.2 2159.62 885.6 2148.22 874.8C2136.82 863.4 2121.82 857.7 2103.22 857.7C2090.62 857.7 2075.92 861 2059.12 867.6C2042.92 874.2 2028.22 881.4 2015.02 889.2V1188H1867.42V562.5L2015.02 552.6V770.4C2033.62 760.2 2054.62 752.1 2078.02 746.1C2101.42 739.5 2123.32 736.2 2143.72 736.2ZM2556.22 1080C2567.62 1080 2579.32 1077.3 2591.32 1071.9C2603.92 1066.5 2615.92 1059 2627.32 1049.4V1005.3H2563.42C2549.62 1005.3 2538.52 1009.5 2530.12 1017.9C2521.72 1025.7 2517.52 1035.3 2517.52 1046.7C2517.52 1055.7 2521.12 1063.5 2528.32 1070.1C2536.12 1076.7 2545.42 1080 2556.22 1080ZM2591.32 737.1C2647.72 737.1 2692.42 753.3 2725.42 785.7C2758.42 818.1 2774.92 860.4 2774.92 912.6V1188H2706.52L2676.82 1153.8C2662.42 1166.4 2644.42 1176.9 2622.82 1185.3C2601.22 1193.7 2578.72 1197.9 2555.32 1197.9C2500.72 1197.9 2459.92 1184.4 2432.92 1157.4C2406.52 1130.4 2393.32 1095 2393.32 1051.2C2393.32 1004.4 2408.92 969.9 2440.12 947.7C2471.32 924.9 2512.12 913.5 2562.52 913.5H2626.42C2624.62 897.3 2618.02 884.7 2606.62 875.7C2595.82 866.7 2582.02 862.2 2565.22 862.2C2548.42 862.2 2528.92 864.9 2506.72 870.3C2485.12 875.7 2466.22 882 2450.02 889.2L2410.42 778.5C2431.42 767.7 2459.02 758.1 2493.22 749.7C2528.02 741.3 2560.72 737.1 2591.32 737.1ZM3094.14 1200.6C3039.54 1200.6 2992.44 1186.5 2952.84 1158.3C2913.84 1130.1 2894.34 1088.1 2894.34 1032.3V879.3H2830.44V764.1H2894.34V650.7L3041.94 629.1V764.1H3138.24L3160.74 879.3H3041.94V1013.4C3041.94 1033.2 3047.04 1049.1 3057.24 1061.1C3068.04 1073.1 3083.64 1079.1 3104.04 1079.1C3111.84 1079.1 3120.84 1077.9 3131.04 1075.5C3141.84 1072.5 3152.04 1068.6 3161.64 1063.8L3203.94 1165.5C3193.74 1175.1 3177.54 1183.2 3155.34 1189.8C3133.14 1197 3112.74 1200.6 3094.14 1200.6Z" fill="#151515"/>
<path d="M3423.18 576V803.7L3663.48 562.5L3776.88 646.2L3577.98 846L3828.18 1188H3640.98L3474.48 949.5L3423.18 1001.7V1188H3275.58V576H3423.18ZM3835.01 576H4348.91C4351.91 595.8 4354.61 615.3 4357.01 634.5C4360.01 653.7 4363.01 673.2 4366.01 693H4165.31V1188H4017.71V693H3835.01V576ZM4587.81 576V1188H4440.21V576H4587.81Z" fill="#1C916E"/>
</svg>
